<svg xmlns="http://www.w3.org/2000/svg" xmlns:xlink="http://www.w3.org/1999/xlink" width="500" zoomAndPan="magnify" viewBox="0 0 375 374.999991" height="500" preserveAspectRatio="xMidYMid meet" version="1.0"><defs><clipPath id="3b42d979f6"><path d="M 75 0 L 300 0 C 341.421875 0 375 33.578125 375 75 L 375 300 C 375 341.421875 341.421875 375 300 375 L 75 375 C 33.578125 375 0 341.421875 0 300 L 0 75 C 0 33.578125 33.578125 0 75 0 Z M 75 0 " clip-rule="nonzero"/></clipPath><clipPath id="8790e16480"><path d="M 64 44 L 311 44 L 311 328 L 64 328 Z M 64 44 " clip-rule="nonzero"/></clipPath><clipPath id="262f3adbea"><path d="M 77.671875 39.710938 L 323.316406 63.046875 L 297.425781 335.570312 L 51.78125 312.234375 Z M 77.671875 39.710938 " clip-rule="nonzero"/></clipPath><clipPath id="8ae7596ac6"><path d="M 77.671875 39.710938 L 323.316406 63.046875 L 297.425781 335.570312 L 51.78125 312.234375 Z M 77.671875 39.710938 " clip-rule="nonzero"/></clipPath><clipPath id="2b3834564f"><path d="M 226 132 L 288 132 L 288 205 L 226 205 Z M 226 132 " clip-rule="nonzero"/></clipPath><clipPath id="9009242c07"><path d="M 77.671875 39.710938 L 323.316406 63.046875 L 297.425781 335.570312 L 51.78125 312.234375 Z M 77.671875 39.710938 " clip-rule="nonzero"/></clipPath><clipPath id="dc8e3f39a4"><path d="M 77.671875 39.710938 L 323.316406 63.046875 L 297.425781 335.570312 L 51.78125 312.234375 Z M 77.671875 39.710938 " clip-rule="nonzero"/></clipPath></defs><g clip-path="url(#3b42d979f6)"><rect x="-37.5" width="450" fill="#1fcc79" y="-37.499999" height="449.999989" fill-opacity="1"/></g><g clip-path="url(#8790e16480)"><g clip-path="url(#262f3adbea)"><g clip-path="url(#8ae7596ac6)"><path fill="#ffffff" d="M 234.269531 110.882812 C 226.601562 110.15625 218.980469 110.460938 211.394531 111.796875 C 215.527344 97.738281 229.847656 87.398438 247.574219 86.429688 C 248.453125 86.386719 249.324219 86.269531 250.183594 86.074219 C 251.042969 85.878906 251.878906 85.605469 252.6875 85.257812 C 253.5 84.914062 254.273438 84.496094 255.011719 84.011719 C 255.746094 83.527344 256.433594 82.980469 257.070312 82.371094 C 257.710938 81.765625 258.289062 81.105469 258.808594 80.390625 C 259.328125 79.679688 259.78125 78.925781 260.164062 78.132812 C 260.550781 77.339844 260.863281 76.519531 261.097656 75.667969 C 261.335938 74.820312 261.496094 73.957031 261.578125 73.078125 L 261.617188 72.679688 C 261.664062 72.15625 261.6875 71.628906 261.679688 71.101562 C 261.671875 70.574219 261.636719 70.050781 261.574219 69.527344 C 261.511719 69.003906 261.421875 68.484375 261.300781 67.972656 C 261.183594 67.460938 261.039062 66.953125 260.863281 66.457031 C 260.691406 65.957031 260.492188 65.472656 260.269531 64.996094 C 260.042969 64.519531 259.792969 64.054688 259.519531 63.605469 C 259.246094 63.15625 258.949219 62.722656 258.628906 62.304688 C 258.308594 61.886719 257.964844 61.484375 257.601562 61.105469 C 257.238281 60.722656 256.855469 60.363281 256.453125 60.023438 C 256.050781 59.679688 255.632812 59.363281 255.195312 59.066406 C 254.761719 58.769531 254.308594 58.5 253.84375 58.253906 C 253.378906 58.003906 252.902344 57.78125 252.414062 57.585938 C 251.925781 57.390625 251.425781 57.21875 250.921875 57.078125 C 250.414062 56.933594 249.898438 56.816406 249.378906 56.730469 C 248.863281 56.640625 248.339844 56.578125 247.8125 56.546875 C 247.289062 56.515625 246.761719 56.511719 246.234375 56.535156 C 229.066406 57.261719 212.769531 63.367188 200.34375 73.722656 C 200.25 73.800781 200.164062 73.875 200.070312 73.953125 C 194.113281 59.613281 181.34375 49.582031 165.328125 48.058594 L 131.652344 44.859375 C 131.300781 44.828125 130.949219 44.828125 130.601562 44.863281 C 130.25 44.898438 129.90625 44.96875 129.570312 45.074219 C 129.234375 45.175781 128.910156 45.3125 128.601562 45.476562 C 128.289062 45.644531 128 45.839844 127.730469 46.066406 C 127.457031 46.289062 127.210938 46.539062 126.988281 46.8125 C 126.765625 47.085938 126.574219 47.375 126.40625 47.6875 C 126.242188 47.996094 126.109375 48.320312 126.007812 48.660156 C 125.90625 48.996094 125.839844 49.339844 125.808594 49.691406 L 125.753906 50.238281 C 125.621094 51.65625 125.558594 53.074219 125.566406 54.496094 C 125.570312 55.917969 125.648438 57.335938 125.792969 58.75 C 125.9375 60.164062 126.152344 61.570312 126.4375 62.960938 C 126.71875 64.355469 127.070312 65.730469 127.488281 67.089844 C 127.90625 68.449219 128.390625 69.785156 128.9375 71.097656 C 129.488281 72.40625 130.101562 73.6875 130.773438 74.941406 C 131.449219 76.191406 132.183594 77.40625 132.980469 78.585938 C 133.773438 79.765625 134.621094 80.902344 135.527344 82 C 136.433594 83.097656 137.390625 84.144531 138.402344 85.148438 C 139.410156 86.148438 140.464844 87.097656 141.566406 87.996094 C 142.667969 88.894531 143.8125 89.738281 144.996094 90.523438 C 146.179688 91.3125 147.402344 92.039062 148.65625 92.703125 C 149.914062 93.371094 151.199219 93.972656 152.515625 94.515625 C 153.828125 95.054688 155.167969 95.53125 156.527344 95.941406 C 157.890625 96.347656 159.269531 96.691406 160.664062 96.964844 C 162.058594 97.238281 163.464844 97.441406 164.878906 97.578125 L 181.855469 99.191406 C 180.636719 102.367188 179.703125 105.621094 179.0625 108.960938 C 171.628906 106.042969 163.9375 104.203125 155.988281 103.445312 C 109.878906 99.066406 68.855469 132.511719 64.53125 178 C 60.289062 222.667969 87.957031 315.367188 135.425781 319.878906 C 142.242188 320.527344 149.035156 320.359375 155.808594 319.367188 C 162.578125 318.375 169.136719 316.589844 175.476562 314.015625 C 181.21875 317.738281 187.324219 320.726562 193.789062 322.976562 C 200.253906 325.222656 206.894531 326.671875 213.707031 327.316406 C 235.019531 329.339844 258.078125 313.195312 278.640625 281.859375 C 295.257812 256.53125 307.878906 224.164062 310.050781 201.324219 C 314.371094 155.835938 280.375 115.265625 234.269531 110.882812 Z M 186.988281 88.910156 L 165.894531 86.90625 C 164.929688 86.8125 163.96875 86.675781 163.015625 86.496094 C 162.0625 86.320312 161.117188 86.101562 160.183594 85.835938 C 159.25 85.574219 158.328125 85.273438 157.421875 84.929688 C 156.515625 84.585938 155.625 84.203125 154.753906 83.777344 C 153.878906 83.355469 153.027344 82.894531 152.195312 82.394531 C 151.363281 81.898438 150.554688 81.363281 149.769531 80.792969 C 148.984375 80.222656 148.226562 79.617188 147.496094 78.980469 C 146.765625 78.34375 146.0625 77.671875 145.394531 76.972656 C 144.722656 76.273438 144.082031 75.542969 143.476562 74.789062 C 142.867188 74.03125 142.296875 73.25 141.757812 72.441406 C 141.222656 71.632812 140.722656 70.804688 140.257812 69.953125 C 139.792969 69.097656 139.371094 68.226562 138.984375 67.339844 C 138.597656 66.449219 138.25 65.542969 137.945312 64.621094 C 137.640625 63.703125 137.375 62.769531 137.152344 61.824219 C 136.929688 60.882812 136.75 59.929688 136.613281 58.96875 C 136.472656 58.007812 136.378906 57.042969 136.324219 56.074219 L 164.3125 58.734375 C 165.90625 58.882812 167.480469 59.148438 169.039062 59.527344 C 170.59375 59.910156 172.113281 60.402344 173.59375 61.003906 C 175.078125 61.609375 176.507812 62.320312 177.886719 63.132812 C 179.265625 63.949219 180.578125 64.859375 181.820312 65.867188 C 183.066406 66.878906 184.230469 67.972656 185.3125 69.148438 C 186.394531 70.328125 187.386719 71.582031 188.285156 72.90625 C 189.183594 74.234375 189.980469 75.617188 190.675781 77.058594 C 191.371094 78.503906 191.957031 79.988281 192.433594 81.515625 C 190.449219 83.855469 188.632812 86.320312 186.988281 88.910156 Z M 189.152344 113.703125 C 192.480469 88.355469 216.898438 68.511719 246.691406 67.246094 C 247.289062 67.21875 247.863281 67.3125 248.417969 67.535156 C 248.96875 67.757812 249.449219 68.085938 249.859375 68.523438 C 250.261719 68.941406 250.558594 69.425781 250.746094 69.976562 C 250.9375 70.523438 251.003906 71.085938 250.945312 71.664062 L 250.90625 72.066406 C 250.855469 72.554688 250.71875 73.019531 250.5 73.460938 C 250.28125 73.902344 249.992188 74.289062 249.632812 74.625 C 249.273438 74.960938 248.863281 75.226562 248.410156 75.414062 C 247.953125 75.601562 247.480469 75.703125 246.988281 75.722656 C 222.289062 77.074219 202.742188 93.347656 199.832031 114.691406 C 197.941406 115.324219 196.0625 115.992188 194.21875 116.746094 C 192.566406 115.671875 190.867188 114.671875 189.152344 113.703125 Z M 269.675781 275.976562 C 251.664062 303.425781 231.636719 318.246094 214.722656 316.640625 C 208.324219 316.039062 202.109375 314.628906 196.078125 312.410156 C 190.046875 310.191406 184.402344 307.238281 179.140625 303.546875 C 178.363281 303.003906 177.503906 302.6875 176.5625 302.597656 C 175.621094 302.507812 174.714844 302.65625 173.851562 303.046875 C 167.988281 305.675781 161.886719 307.515625 155.546875 308.558594 C 149.207031 309.601562 142.839844 309.816406 136.441406 309.203125 C 119.527344 307.597656 102.644531 289.269531 90.128906 258.917969 C 79.183594 232.382812 73.1875 200.273438 75.207031 179.011719 C 78.96875 139.410156 114.753906 110.300781 154.972656 114.121094 C 161.371094 114.722656 167.585938 116.132812 173.617188 118.351562 C 179.648438 120.570312 185.292969 123.523438 190.554688 127.214844 C 191.332031 127.757812 192.191406 128.074219 193.132812 128.164062 C 194.078125 128.253906 194.980469 128.105469 195.84375 127.714844 C 201.707031 125.085938 207.808594 123.246094 214.148438 122.203125 C 220.488281 121.160156 226.859375 120.945312 233.253906 121.558594 C 273.476562 125.378906 303.136719 160.707031 299.375 200.308594 C 297.355469 221.570312 285.417969 251.976562 269.675781 275.976562 Z M 269.675781 275.976562 " fill-opacity="1" fill-rule="nonzero"/></g></g></g><g clip-path="url(#2b3834564f)"><g clip-path="url(#9009242c07)"><g clip-path="url(#dc8e3f39a4)"><path fill="#ffffff" d="M 232.210938 132.542969 C 231.859375 132.507812 231.511719 132.511719 231.160156 132.546875 C 230.808594 132.582031 230.46875 132.652344 230.132812 132.753906 C 229.792969 132.859375 229.472656 132.996094 229.164062 133.160156 C 228.851562 133.328125 228.5625 133.523438 228.292969 133.75 C 228.019531 133.972656 227.773438 134.222656 227.550781 134.496094 C 227.328125 134.765625 227.136719 135.058594 226.972656 135.371094 C 226.804688 135.679688 226.671875 136.003906 226.574219 136.339844 C 226.472656 136.679688 226.40625 137.023438 226.371094 137.371094 C 226.339844 137.722656 226.339844 138.074219 226.375 138.421875 C 226.410156 138.773438 226.480469 139.117188 226.582031 139.453125 C 226.6875 139.789062 226.820312 140.113281 226.988281 140.421875 C 227.15625 140.730469 227.351562 141.023438 227.574219 141.292969 C 227.796875 141.5625 228.046875 141.8125 228.320312 142.035156 C 228.59375 142.257812 228.882812 142.449219 229.195312 142.613281 C 229.503906 142.78125 229.828125 142.914062 230.164062 143.015625 C 230.503906 143.117188 230.847656 143.183594 231.195312 143.214844 C 259.085938 145.867188 279.636719 170.523438 277.007812 198.183594 C 276.976562 198.535156 276.976562 198.886719 277.011719 199.234375 C 277.046875 199.585938 277.117188 199.929688 277.222656 200.265625 C 277.324219 200.601562 277.460938 200.925781 277.625 201.234375 C 277.792969 201.546875 277.988281 201.835938 278.214844 202.105469 C 278.4375 202.378906 278.6875 202.625 278.960938 202.847656 C 279.230469 203.070312 279.523438 203.261719 279.835938 203.429688 C 280.144531 203.59375 280.46875 203.726562 280.808594 203.828125 C 281.144531 203.929688 281.488281 203.996094 281.839844 204.027344 C 282.191406 204.0625 282.539062 204.0625 282.890625 204.023438 C 283.242188 203.988281 283.582031 203.917969 283.921875 203.816406 C 284.257812 203.714844 284.578125 203.578125 284.890625 203.410156 C 285.199219 203.242188 285.492188 203.046875 285.761719 202.824219 C 286.03125 202.601562 286.28125 202.351562 286.503906 202.078125 C 286.722656 201.804688 286.917969 201.511719 287.082031 201.203125 C 287.246094 200.890625 287.382812 200.566406 287.480469 200.230469 C 287.582031 199.894531 287.648438 199.550781 287.683594 199.199219 C 290.871094 165.652344 265.984375 135.75 232.210938 132.542969 Z M 232.210938 132.542969 " fill-opacity="1" fill-rule="nonzero"/></g></g></g></svg>